<?xml version="1.0" encoding="utf-8"?>
<!-- Generator: Adobe Illustrator 18.1.1, SVG Export Plug-In . SVG Version: 6.00 Build 0)  -->
<svg version="1.1" id="Ebene_1" xmlns="http://www.w3.org/2000/svg" xmlns:xlink="http://www.w3.org/1999/xlink" x="0px" y="0px"
	 width="22px" height="33px" viewBox="0 0 22 33" style="enable-background:new 0 0 22 33;" xml:space="preserve">
<path style="fill:#FFFFFF;" d="M32.3,9.9L23,0.6c-0.6-0.6-1.5-0.6-2.1,0s-0.6,1.5,0,2.1l6.7,6.7H1.8c-0.8,0-1.5,0.7-1.5,1.5
	s0.7,1.5,1.5,1.5h25.8l-6.7,6.7c-0.6,0.6-0.6,1.5,0,2.1c0.3,0.3,0.7,0.4,1.1,0.4s0.8-0.1,1.1-0.4l9.3-9.3c0.3-0.3,0.4-0.7,0.4-1.1
	S32.6,10.2,32.3,9.9z" transform="rotate(90 11.0 11.0)"/>
</svg>
